HIERARCHY
ROOT Hips
{
    OFFSET 0.000000 0.000000 0.000000
    CHANNELS 6 Xposition Yposition Zposition Zrotation Xrotation Yrotation
    JOINT Spine
    {
        OFFSET -0.000000 6.993131 0.000000
        CHANNELS 3 Zrotation Xrotation Yrotation
        JOINT Spine1
        {
            OFFSET -0.000000 20.649729 0.000000
            CHANNELS 3 Zrotation Xrotation Yrotation
            JOINT Neck
            {
                OFFSET -0.000000 20.564924 1.869539
                CHANNELS 3 Zrotation Xrotation Yrotation
                JOINT Head
                {
                    OFFSET -0.000000 11.939490 -1.705642
                    CHANNELS 3 Zrotation Xrotation Yrotation
                    End Site
                    {
                        OFFSET -0.000000 21.320518 0.000000
                    }
                }
            }
            JOINT LeftShoulder
            {
                OFFSET 3.446977 19.850397 -0.038759
                CHANNELS 3 Zrotation Xrotation Yrotation
                JOINT LeftArm
                {
                    OFFSET 7.083611 0.000000 0.000000
                    CHANNELS 3 Zrotation Xrotation Yrotation
                    JOINT LeftForeArm
                    {
                        OFFSET 32.044487 0.000000 0.000000
                        CHANNELS 3 Zrotation Xrotation Yrotation
                        JOINT LeftHand
                        {
                            OFFSET 22.068741 0.000000 0.000000
                            CHANNELS 3 Zrotation Xrotation Yrotation
                            End Site
                            {
                                OFFSET 12.792312 0.000000 0.000000
                            }
                        }
                    }
                }
            }
            JOINT RightShoulder
            {
                OFFSET -3.365844 19.850397 -0.038759
                CHANNELS 3 Zrotation Xrotation Yrotation
                JOINT RightArm
                {
                    OFFSET -7.083611 0.000000 0.000000
                    CHANNELS 3 Zrotation Xrotation Yrotation
                    JOINT RightForeArm
                    {
                        OFFSET -32.044487 0.000000 0.000000
                        CHANNELS 3 Zrotation Xrotation Yrotation
                        JOINT RightHand
                        {
                            OFFSET -22.068741 0.000000 0.000000
                            CHANNELS 3 Zrotation Xrotation Yrotation
                            End Site
                            {
                                OFFSET -12.792312 0.000000 0.000000
                            }
                        }
                    }
                }
            }
        }
    }
    JOINT LeftUpLeg
    {
        OFFSET 8.528208 0.000000 0.000000
        CHANNELS 3 Zrotation Xrotation Yrotation
        JOINT LeftLeg
        {
            OFFSET -0.000000 -31.874865 0.000000
            CHANNELS 3 Zrotation Xrotation Yrotation
            JOINT LeftFoot
            {
                OFFSET -0.000000 -38.221939 0.000000
                CHANNELS 3 Zrotation Xrotation Yrotation
                JOINT LeftToeBase
                {
                    OFFSET -0.000000 -5.543335 12.792312
                    CHANNELS 3 Zrotation Xrotation Yrotation
                    End Site
                    {
                        OFFSET -0.000000 0.000000 3.411283
                    }
                }
            }
        }
    }
    JOINT RightUpLeg
    {
        OFFSET -8.528208 0.000000 0.000000
        CHANNELS 3 Zrotation Xrotation Yrotation
        JOINT RightLeg
        {
            OFFSET -0.000000 -31.874865 0.000000
            CHANNELS 3 Zrotation Xrotation Yrotation
            JOINT RightFoot
            {
                OFFSET -0.000000 -38.221939 0.000000
                CHANNELS 3 Zrotation Xrotation Yrotation
                JOINT RightToeBase
                {
                    OFFSET -0.000000 -5.543335 12.792312
                    CHANNELS 3 Zrotation Xrotation Yrotation
                    End Site
                    {
                        OFFSET -0.000000 0.000000 3.411283
                    }
                }
            }
        }
    }
}
MOTION
Frames:    8
Frame Time:    0.008333
82.073128    119.783470    24.459373    -3.460931    0.326045    93.040283    -1.228815    -8.212756    1.553040    -0.836882    3.555958    1.667234    8.697563    7.664775    9.229973    -10.255107    6.770848    8.062757    26.627483    -1.264050    0.768353    -30.707132    -3.330657    -6.050450    4.908753    2.309592    -0.795211    11.146496    1.393222    -9.721819    -16.032225    -0.760014    -3.743359    17.165594    1.413704    3.013539    -7.764431    6.859491    5.101557    -9.231069    7.029096    2.174380    -3.948126    -5.857540    -1.580548    10.624022    10.984036    -2.319033    -45.187321    13.282326    -9.372990    0.000000    0.000000    0.000000    -7.481323    -1.566921    0.920633    8.187314    9.778156    -3.458054    5.267595    -9.646693    -4.500172    0.000000    0.000000    0.000000    
82.075546    119.792053    24.450306    -3.484374    0.317750    93.028763    -1.319936    -8.243352    1.547962    -0.744236    3.507799    1.665890    8.725289    7.698291    9.167709    -10.239451    6.873314    8.008704    26.627504    -1.295390    0.742355    -30.724541    -3.332284    -6.110232    4.927985    2.485619    -0.772455    11.153204    1.574024    -9.659760    -16.025482    -0.782209    -3.764543    17.135174    1.441124    3.030777    -7.781070    6.870134    5.146739    -9.342401    7.037017    2.228751    -3.942489    -5.869003    -1.575601    9.560952    12.533749    -2.492785    -12.581634    -2.742350    -18.736164    0.000000    0.000000    0.000000    -7.475528    -1.581971    0.898340    8.173009    9.764943    -3.449649    5.293235    -9.615502    -4.486089    0.000000    0.000000    0.000000    
82.076088    119.794861    24.446203    -3.499031    0.303924    93.020393    -1.342691    -8.270348    1.543468    -0.708883    3.497144    1.662231    8.736621    7.723885    9.146206    -10.244783    6.915108    7.990705    26.613609    -1.320458    0.725635    -30.732660    -3.334411    -6.108413    4.967947    2.554604    -0.797674    11.136868    1.647249    -9.645150    -16.045134    -0.779580    -3.777226    17.140858    1.447198    3.059809    -7.795592    6.873652    5.179144    -9.417308    7.041101    2.238904    -3.932215    -5.879918    -1.573630    8.286982    13.239242    -2.446543    -8.652128    -6.841499    -14.515858    0.000000    0.000000    0.000000    -7.465588    -1.588320    0.906737    8.171314    9.746761    -3.428362    5.270280    -9.605148    -4.501637    0.000000    0.000000    0.000000    
82.076401    119.796280    24.441198    -3.508710    0.301312    93.013260    -1.393089    -8.281541    1.544067    -0.655075    3.465695    1.664737    8.728415    7.746050    9.102809    -10.195245    6.974452    7.957177    26.626118    -1.332801    0.712827    -30.764837    -3.393606    -6.163510    4.980245    2.654636    -0.740288    11.068705    1.745631    -9.697290    -16.035311    -0.753149    -3.791052    17.113924    1.456069    3.079712    -7.828623    6.867310    5.209816    -9.434156    7.035624    2.268136    -3.936601    -5.878722    -1.584454    8.286982    13.239242    -2.446543    -5.414069    -8.843563    -10.838495    0.000000    0.000000    0.000000    -7.467037    -1.587717    0.948814    8.176690    9.726209    -3.449188    5.288610    -9.604952    -4.512222    0.000000    0.000000    0.000000    
82.076378    119.795799    24.438364    -3.520142    0.287083    93.005478    -1.396117    -8.285014    1.530034    -0.640006    3.423747    1.650314    8.667006    7.773490    9.078542    -10.109952    7.018902    7.949820    26.587831    -1.351893    0.696060    -30.730795    -3.385417    -6.143918    4.995900    2.696981    -0.732918    11.068862    1.787161    -9.703502    -16.054459    -0.724687    -3.769170    17.126064    1.443729    3.099825    -7.861037    6.857557    5.254098    -9.497515    7.029611    2.262271    -3.929125    -5.886869    -1.612916    8.286982    13.239242    -2.446543    -5.439519    -8.837547    -10.806653    0.000000    0.000000    0.000000    -7.445088    -1.592229    0.946793    8.161501    9.712496    -3.460985    5.287115    -9.607049    -4.494998    0.000000    0.000000    0.000000    
82.077499    119.793770    24.434034    -3.525683    0.277247    92.997993    -1.378523    -8.282410    1.505692    -0.673925    3.385880    1.625479    8.651181    7.779315    9.062428    -10.057133    7.095624    7.945773    26.607977    -1.324128    0.722835    -30.726728    -3.373283    -6.145256    4.988669    2.724078    -0.721442    11.217684    1.796332    -9.750778    -16.051466    -0.723477    -3.738465    17.137383    1.418250    3.136145    -7.892730    6.858855    5.290901    -9.598876    7.034181    2.246749    -3.928748    -5.884207    -1.644264    8.286982    13.239242    -2.446543    -5.416836    -8.855923    -10.757604    0.000000    0.000000    0.000000    -7.434825    -1.578195    0.938650    8.153628    9.703284    -3.201311    5.231193    -9.658236    -4.753080    0.000000    0.000000    0.000000    
82.077148    119.790176    24.432400    -3.536756    0.261091    92.992340    -1.366788    -8.289403    1.486829    -0.696465    3.353567    1.606274    8.565292    7.703478    9.040148    -9.863368    7.274290    7.954509    26.605053    -1.313473    0.736169    -30.704912    -3.378691    -6.154988    5.011702    2.706259    -0.717245    11.197518    1.780359    -9.749104    -16.034445    -0.728063    -3.697418    17.135792    1.392196    3.137241    -7.926557    6.852518    5.343695    -9.631804    7.034362    2.223219    -3.905748    -5.884605    -1.677695    8.286982    13.239242    -2.446543    -5.443751    -8.893075    -10.752242    0.000000    0.000000    0.000000    -7.422385    -1.576053    0.976097    8.167630    9.675077    -3.211419    5.207207    -9.666898    -4.777014    0.000000    0.000000    0.000000    
82.077171    119.787346    24.428318    -3.547832    0.248748    92.990059    -1.375234    -8.320974    1.465084    -0.666569    3.376558    1.584771    8.560248    7.744238    9.017000    -9.903112    7.244240    7.928182    26.565628    -1.336228    0.739297    -30.664249    -3.323295    -6.119241    5.039665    2.627747    -0.790443    11.077587    1.725626    -9.645377    -16.099663    -0.731428    -3.697101    17.178577    1.361396    3.175330    -7.961653    6.838259    5.382821    -9.600772    7.022705    2.251098    -3.900539    -5.887100    -1.721813    8.286982    13.239242    -2.446543    -5.446944    -8.914596    -10.712626    0.000000    0.000000    0.000000    -7.413277    -1.570563    0.986776    8.166877    9.639800    -3.239187    5.186606    -9.668758    -4.746188    0.000000    0.000000    0.000000    
